<svg width="50" height="50" viewBox="0 0 50 50" fill="none" xmlns="http://www.w3.org/2000/svg">
<path d="M45.2476 23.5269L41.0758 19.3602L26.4746 4.77667C26.0834 4.3861 25.5529 4.16669 24.9998 4.16669C24.4467 4.16669 23.9163 4.3861 23.5251 4.77667L8.92383 19.3602L4.75204 23.5269C4.37208 23.9198 4.16183 24.446 4.16658 24.9923C4.17134 25.5385 4.39071 26.0611 4.77745 26.4473C5.16419 26.8336 5.68736 27.0527 6.23427 27.0575C6.78119 27.0622 7.30809 26.8522 7.7015 26.4727L8.31266 25.8623V41.6666C8.31266 42.7717 8.75219 43.8315 9.53455 44.6129C10.3169 45.3944 11.378 45.8334 12.4845 45.8334H18.7421C19.2954 45.8334 19.8259 45.6139 20.2171 45.2232C20.6083 44.8324 20.828 44.3025 20.828 43.75V35.4166C20.828 34.864 21.0478 34.3341 21.439 33.9434C21.8302 33.5527 22.3607 33.3332 22.9139 33.3332H27.0857C27.6389 33.3332 28.1695 33.5527 28.5607 33.9434C28.9519 34.3341 29.1716 34.864 29.1716 35.4166V43.75C29.1716 44.3025 29.3914 44.8324 29.7826 45.2232C30.1738 45.6139 30.7043 45.8334 31.2575 45.8334H37.5152C38.6216 45.8334 39.6828 45.3944 40.4651 44.6129C41.2475 43.8315 41.687 42.7717 41.687 41.6666V25.8623L42.2982 26.4727C42.6916 26.8522 43.2185 27.0622 43.7654 27.0575C44.3123 27.0527 44.8355 26.8336 45.2222 26.4473C45.609 26.0611 45.8283 25.5385 45.8331 24.9923C45.8378 24.446 45.6276 23.9198 45.2476 23.5269Z" fill="#E6E6E6"/>
</svg>
