<svg width="50" height="50" viewBox="0 0 50 50" fill="none" xmlns="http://www.w3.org/2000/svg">
<path d="M25 6.25C21.2916 6.25 17.6665 7.34967 14.5831 9.40994C11.4996 11.4702 9.09641 14.3986 7.67727 17.8247C6.25812 21.2508 5.88681 25.0208 6.61028 28.6579C7.33376 32.2951 9.11952 35.636 11.7418 38.2582C14.364 40.8805 17.7049 42.6662 21.3421 43.3897C24.9792 44.1132 28.7492 43.7419 32.1753 42.3227C35.6014 40.9036 38.5298 38.5004 40.5901 35.4169C42.6503 32.3335 43.75 28.7084 43.75 25C43.7445 20.0289 41.7673 15.2629 38.2522 11.7478C34.7371 8.23265 29.9711 6.25546 25 6.25ZM25 36.25C24.6292 36.25 24.2667 36.14 23.9583 35.934C23.65 35.728 23.4096 35.4351 23.2677 35.0925C23.1258 34.7499 23.0887 34.3729 23.161 34.0092C23.2334 33.6455 23.412 33.3114 23.6742 33.0492C23.9364 32.7869 24.2705 32.6084 24.6342 32.536C24.9979 32.4637 25.3749 32.5008 25.7175 32.6427C26.0601 32.7846 26.353 33.025 26.559 33.3333C26.765 33.6416 26.875 34.0042 26.875 34.375C26.875 34.8723 26.6775 35.3492 26.3258 35.7008C25.9742 36.0525 25.4973 36.25 25 36.25ZM26.875 27.7487V28.75C26.875 29.2473 26.6775 29.7242 26.3258 30.0758C25.9742 30.4275 25.4973 30.625 25 30.625C24.5027 30.625 24.0258 30.4275 23.6742 30.0758C23.3225 29.7242 23.125 29.2473 23.125 28.75V26.0912C23.125 25.8388 23.176 25.5889 23.2749 25.3566C23.3738 25.1243 23.5186 24.9143 23.7006 24.7394C23.8813 24.5633 24.0961 24.4262 24.3319 24.3366C24.5676 24.2469 24.8193 24.2066 25.0713 24.2181C25.4337 24.2313 25.7952 24.171 26.1338 24.041C26.4724 23.911 26.7813 23.7139 27.0419 23.4616C27.3024 23.2092 27.5093 22.9068 27.6501 22.5726C27.7909 22.2383 27.8628 21.879 27.8613 21.5162C27.8901 20.7703 27.6214 20.0435 27.1144 19.4957C26.6073 18.9478 25.9034 18.6238 25.1575 18.595C24.4116 18.5662 23.6848 18.8348 23.1369 19.3419C22.5891 19.8489 22.2651 20.5528 22.2363 21.2987C22.2303 21.5458 22.1749 21.7892 22.0733 22.0145C21.9717 22.2398 21.8259 22.4424 21.6447 22.6104C21.4634 22.7784 21.2503 22.9083 21.0179 22.9925C20.7856 23.0767 20.5387 23.1135 20.2919 23.1006C19.7955 23.0811 19.3271 22.8654 18.9896 22.5008C18.6521 22.1363 18.4731 21.6527 18.4919 21.1562C18.5451 19.9505 18.9298 18.7828 19.6037 17.7816C20.2775 16.7803 21.2145 15.9843 22.3114 15.481C23.4084 14.9777 24.6229 14.7867 25.8214 14.9289C27.0199 15.0712 28.1559 15.5412 29.1046 16.2872C30.0533 17.0333 30.7779 18.0265 31.1987 19.1577C31.6195 20.2888 31.7202 21.5141 31.4897 22.6988C31.2593 23.8835 30.7066 24.9817 29.8924 25.8726C29.0783 26.7636 28.0342 27.4127 26.875 27.7487Z" fill="#E6E6E6"/>
</svg>
