<svg width="50" height="50" viewBox="0 0 50 50" fill="none" xmlns="http://www.w3.org/2000/svg">
<path d="M24.9998 23.9035C30.5758 23.9035 35.096 19.4853 35.096 14.0351C35.096 8.58493 30.5758 4.16669 24.9998 4.16669C19.4239 4.16669 14.9037 8.58493 14.9037 14.0351C14.9037 19.4853 19.4239 23.9035 24.9998 23.9035Z" fill="#E6E6E6"/>
<path d="M28.3652 26.0965H21.6345C18.6604 26.1 15.8091 27.2563 13.7061 29.3119C11.6031 31.3675 10.4201 34.1544 10.4165 37.0614V43.6404C10.4165 44.222 10.6529 44.7798 11.0736 45.191C11.4944 45.6023 12.0651 45.8334 12.6601 45.8334H37.3396C37.9346 45.8334 38.5053 45.6023 38.926 45.191C39.3468 44.7798 39.5832 44.222 39.5832 43.6404V37.0614C39.5796 34.1544 38.3966 31.3675 36.2936 29.3119C34.1906 27.2563 31.3393 26.1 28.3652 26.0965Z" fill="#E6E6E6"/>
</svg>
